:SAMPLES-PER-SECOND 30
:FULLY-SPECIFIED
:DEGREES
184
root  4.404155476 41.20399896 8.525333254 3.992980957 -27.40400696 -8.031982422
lowerback  5.06208992 6.610079765 -2.952889919
upperback  2.98842001 8.588450432 -6.308080196
thorax  0.829185009 4.291779995 -5.23281002
lowerneck  1.23416996 2.836519957 -6.304009914
upperneck  14.60050011 2.050810099 16.37649918
head  3.775099993 1.424129963 6.216090202
lclavicle  0 -9.442270133e-015 7.951389973e-016
lhumerus  -3.883660078 -17.26189995 69.29489899
lradius  2.660764342e-031 -2.321460134e-031 138.8959961
lwrist  -7.062250077e-031 -1.765562519e-031 8.717969894
lhand  -1.496451383e-031 -27.76390076 20.11240005
lfingers  90 7.125020027 -90
lthumb  89.89689403 5.08795885 91.16245106
rclavicle  0 -9.442270133e-015 7.951389973e-016
rhumerus  2.785200119 8.947509766 -74.22750092
rradius  -1.121377425e-031 3.348336409e-031 108.5159988
rwrist  1.059337512e-030 -0 -1.769940019
rhand  -7.920061211e-032 -33.2840004 9.303460121
rfingers  -90 -7.125020027 -90
rthumb  -92.93752616 -24.25625642 -97.11982154
rfemur  1.574480057 7.730060101 16.79240036
rtibia  -0 0 36.79809952
rfoot  -0 -6.419730186 -13.84980011
rtoes  5.373923086 19.29304026 -105.8922705
lfemur  -28.45789909 -12.72959995 9.003120422
ltibia  -0 0 33.78039932
lfoot  -0 10.37749958 11.8039999
ltoes  -4.250644065 -19.5611806 -102.515957
185
root  4.427644399 41.35422294 8.34599968 4.489013672 -28.61799622 -8.114013672
lowerback  5.213840008 6.291689873 -2.930949926
upperback  2.815920115 8.140270233 -6.250760078
thorax  0.5273630023 4.06441021 -5.200230122
lowerneck  0.1666149944 2.927839994 -6.559559822
upperneck  14.93290043 2.232160091 15.86219978
head  4.0448699 1.525380015 6.127319813
lclavicle  0 -9.442270133e-015 7.951389973e-016
lhumerus  -3.988759995 -15.6942997 68.63140106
lradius  2.725447452e-031 -2.245168194e-031 140.5189972
lwrist  -7.062250077e-031 1.765562519e-031 8.89593029
lhand  -1.496451383e-031 -27.76390076 20.11240005
lfingers  90 7.125020027 -90
lthumb  89.89689403 5.08795885 91.16245106
rclavicle  0 -9.442270133e-015 7.951389973e-016
rhumerus  0.1475879997 9.532770157 -74.59120178
rradius  -1.26946862e-031 3.295040737e-031 111.0699997
rwrist  1.059337512e-030 -0 -1.856830001
rhand  -7.920061211e-032 -33.2840004 9.303460121
rfingers  -90 -7.125020027 -90
rthumb  -92.93752616 -24.25625642 -97.11982154
rfemur  0.686751008 7.879720211 16.54640007
rtibia  -0 0 36.42259979
rfoot  -0 -7.738770008 -13.48120022
rtoes  5.373923086 19.29304026 -105.8922705
lfemur  -28.42200089 -12.60239983 8.972990036
ltibia  -0 0 34.04869843
lfoot  -0 10.38249969 11.36699963
ltoes  -4.250644065 -19.5611806 -102.515957
186
root  4.456266643 41.47355688 8.168422519 4.958984375 -29.7250061 -8.268981934
lowerback  5.395430088 5.921299934 -2.811700106
upperback  2.691669941 7.63161993 -6.101950169
thorax  0.2554959953 3.807980061 -5.119470119
lowerneck  -0.9128749967 3.059979916 -6.788919926
upperneck  15.23019981 2.504689932 15.21100044
head  4.300960064 1.660390019 5.993710041
lclavicle  0 -9.442270133e-015 7.951389973e-016
lhumerus  -4.141940117 -14.16950035 68.05709839
lradius  2.78839794e-031 -2.166490472e-031 142.154007
lwrist  -1.412450015e-030 -0 9.115750313
lhand  -1.496451383e-031 -27.76390076 20.11240005
lfingers  90 7.125020027 -90
lthumb  89.89689403 5.08795885 91.16245106
rclavicle  0 -9.442270133e-015 7.951389973e-016
rhumerus  -2.101419926 10.16429996 -74.76930237
rradius  -1.395871733e-031 3.243514474e-031 113.2850037
rwrist  7.062250077e-031 -0 -1.782770038
rhand  -7.920061211e-032 -33.2840004 9.303460121
rfingers  -90 -7.125020027 -90
rthumb  -92.93752616 -24.25625642 -97.11982154
rfemur  -0.2218019962 8.049449921 16.41939926
rtibia  -0 0 36.3771019
rfoot  -0 -8.87460041 -12.89630032
rtoes  5.373923086 19.29304026 -105.8922705
lfemur  -28.51119995 -12.09939957 8.844129562
ltibia  -0 0 34.74549866
lfoot  -0 10.55200005 9.212820053
ltoes  -4.250644065 -19.5611806 -102.515957
187
root  4.494110994 41.55399893 7.984755358 5.364013672 -30.68400574 -8.336975098
lowerback  5.64756012 5.478089809 -2.718499899
upperback  2.594949961 7.023960114 -5.914879799
thorax  -0.04061640054 3.50135994 -4.982049942
lowerneck  -1.986819983 3.261679888 -7.143139839
upperneck  15.41660023 2.900110006 14.62749958
head  4.505929947 1.844550014 5.906559944
lclavicle  0 -9.442270133e-015 7.951389973e-016
lhumerus  -4.266910076 -12.67560005 67.53119659
lradius  2.844446551e-031 -2.0923594e-031 143.6620026
lwrist  -7.062250077e-031 -1.765562519e-031 9.416660309
lhand  -1.496451383e-031 -27.76390076 20.11240005
lfingers  90 7.125020027 -90
lthumb  89.89689403 5.08795885 91.16245106
rclavicle  0 -9.442270133e-015 7.951389973e-016
rhumerus  -4.091819763 10.72179985 -74.81770325
rradius  -1.513120329e-031 3.190503237e-031 115.3730011
rwrist  3.531125038e-031 -0 -1.614439964
rhand  -7.920061211e-032 -33.2840004 9.303460121
rfingers  -90 -7.125020027 -90
rthumb  -92.93752616 -24.25625642 -97.11982154
rfemur  -1.176769972 8.11935997 16.24110031
rtibia  -0 0 36.71049881
rfoot  -0 -9.769220352 -12.37759972
rtoes  5.373923086 19.29304026 -105.8922705
lfemur  -28.83670044 -11.49269962 8.544850349
ltibia  -0 0 35.87779999
lfoot  4.49150843e-032 10.66609955 6.4697299
ltoes  -4.250644065 -19.5611806 -102.515957
